<svg enable-background="new 0 0 48 48" viewBox="0 0 48 48" 
    xmlns="http://www.w3.org/2000/svg">
    <path d="m13 7h22v16h-22z" fill="#661c1c"/>
    <path d="m39 43h-30c-2.2 0-4-1.8-4-4v-16h38v16c0 2.2-1.8 4-4 4z" fill="#607d8b"/>
    <path d="m43 23v-14c0-2.2-1.8-4-4-4h-30c-2.2 0-4 1.8-4 4v14h13.6s3.3-3.5 5.4-15.6c1.8 12.1 5.4 15.6 5.4 15.6z" fill="#b71c1c"/>
    <g fill="#ffa726">
        <circle cx="20" cy="28" r="3"/>
        <circle cx="12" cy="28" r="3"/>
        <circle cx="36" cy="28" r="3"/>
        <circle cx="28" cy="28" r="3"/>
    </g>
    <circle cx="24" cy="37" fill="#ffb74d" r="4"/>
    <circle cx="14" cy="37" fill="#ffb74d" r="4"/>
    <circle cx="34" cy="37" fill="#ffb74d" r="4"/>
    <path d="m36.2 23s-5.1-5.1-8.2-16.7c1.1 10.5 5 16.7 5 16.7z" fill="#e53935"/>
    <path d="m43 23s-5.1-2.1-8.2-13.7c1.1 10.4 4 13.7 4 13.7z" fill="#e53935"/>
    <path d="m11.8 23s5.1-5.1 8.2-16.7c-1.1 10.5-5 16.7-5 16.7z" fill="#e53935"/>
    <path d="m5 23s5.1-2.1 8.2-13.7c-1.1 10.4-4 13.7-4 13.7z" fill="#e53935"/>
</svg>