<svg enable-background="new 0 0 48 48" viewBox="0 0 48 48" xmlns="http://www.w3.org/2000/svg"><path d="m34.6 28.1h4v17h-4z" fill="#616161" transform="matrix(.7071 -.7071 .7071 .7071 -15.1544 36.5859)"/><circle cx="20" cy="20" fill="#616161" r="16"/><path d="m36.2 32.1h4v12.3h-4z" fill="#37474f" transform="matrix(.7071 -.7071 .7071 .7071 -15.8392 38.2393)"/><circle cx="20" cy="20" fill="#64b5f6" r="13"/><path d="m26.9 14.2c-1.7-2-4.2-3.2-6.9-3.2s-5.2 1.2-6.9 3.2c-.4.4-.3 1.1.1 1.4.4.4 1.1.3 1.4-.1 1.4-1.6 3.3-2.5 5.4-2.5s4 .9 5.4 2.5c.2.2.5.4.8.4.2 0 .5-.1.6-.2.4-.4.4-1.1.1-1.5z" fill="#bbdefb"/></svg>