<svg fill="#000" viewBox="0 0 24 24" 
    xmlns="http://www.w3.org/2000/svg">
    <path d="m9 2c-3.8541486 0-7 3.1458514-7 7 0 3.854149 3.1458514 7 7 7 1.747998 0 3.345009-.651976 4.574219-1.71875l.425781.425781v1.292969l5.585938 5.585938c.551999.551999 1.448.552 2 0s.552-1.448 0-2l-5.585938-5.585938h-1.292969l-.425781-.425781c1.066774-1.22921 1.71875-2.826221 1.71875-4.574219 0-3.8541486-3.145851-7-7-7zm0 2c2.773268 0 5 2.2267316 5 5 0 2.773268-2.226732 5-5 5-2.7732684 0-5-2.226732-5-5 0-2.7732684 2.2267316-5 5-5z" fill="#000"/>
</svg>